inDegrees=no
num_controls=7
num_derivatives=13
num_iterations=109
num_multipliers=7
num_parameters=0
num_slacks=7
num_states=26
objective=5.494236
objective_accelerations=0.665124
objective_balance=0.034366
objective_effort=0.352140
objective_height=4.355530
objective_ligament=0.087076
solver_duration=1213.595875
status=Solve_Succeeded
success=true
DataType=double
version=3
OpenSimVersion=4.4-2022-07-23-0e9fedc
endheader
time	/jointset/ground_pelvis/pelvis_tilt/value	/jointset/ground_pelvis/pelvis_tx/value	/jointset/ground_pelvis/pelvis_ty/value	/jointset/hip_l/hip_flexion_l/value	/jointset/hip_l/hip_adduction_l/value	/jointset/hip_l/hip_rotation_l/value	/jointset/back/lumbar_extension/value	/jointset/patellofemoral_l/patellar_flexion_l/value	/jointset/knee_l/knee_flexion_l/value	/jointset/knee_l/knee_adduction_l/value	/jointset/knee_l/knee_rotation_l/value	/jointset/ankle_l/ankle_angle_l/value	/jointset/subtalar_l/subtalar_angle_l/value	/jointset/ground_pelvis/pelvis_tilt/speed	/jointset/ground_pelvis/pelvis_tx/speed	/jointset/ground_pelvis/pelvis_ty/speed	/jointset/hip_l/hip_flexion_l/speed	/jointset/hip_l/hip_adduction_l/speed	/jointset/hip_l/hip_rotation_l/speed	/jointset/back/lumbar_extension/speed	/jointset/patellofemoral_l/patellar_flexion_l/speed	/jointset/knee_l/knee_flexion_l/speed	/jointset/knee_l/knee_adduction_l/speed	/jointset/knee_l/knee_rotation_l/speed	/jointset/ankle_l/ankle_angle_l/speed	/jointset/subtalar_l/subtalar_angle_l/speed	/forceset/tau_hip_flexion_l	/forceset/tau_hip_adduction_l	/forceset/tau_hip_rotation_l	/forceset/tau_knee_flexion_l	/forceset/tau_ankle_angle_l	/forceset/tau_subtalar_angle_l	/forceset/tau_lumbar_extension	lambda_cid13_p0	lambda_cid13_p1	lambda_cid13_p2	lambda_cid13_p3	lambda_cid13_p4	lambda_cid13_p5	lambda_cid14_p0	/jointset/ground_pelvis/pelvis_tilt/accel	/jointset/ground_pelvis/pelvis_tx/accel	/jointset/ground_pelvis/pelvis_ty/accel	/jointset/hip_l/hip_flexion_l/accel	/jointset/hip_l/hip_adduction_l/accel	/jointset/hip_l/hip_rotation_l/accel	/jointset/back/lumbar_extension/accel	/jointset/patellofemoral_l/patellar_flexion_l/accel	/jointset/knee_l/knee_flexion_l/accel	/jointset/knee_l/knee_adduction_l/accel	/jointset/knee_l/knee_rotation_l/accel	/jointset/ankle_l/ankle_angle_l/accel	/jointset/subtalar_l/subtalar_angle_l/accel	gamma_cid13_p0	gamma_cid13_p1	gamma_cid13_p2	gamma_cid13_p3	gamma_cid13_p4	gamma_cid13_p5	gamma_cid14_p0
1.5	-0.4939851091229415	-0.09368285514292035	0.7584604663833943	1.22525039941462	-0.4264149478452226	-0.2744778622883378	-0.2329724972195952	0.6343592440433266	0.6343592440434606	-0.1671630355884495	-0.1551508086997773	-0.06002599855438484	-0.105559531878973	1.025090753253897	0.4423470520274101	0.528075163838462	-2.731748209995829	0.2239427271468685	-0.5812398465287985	0.2889580596287062	-1.551926771881212	-1.551926771881388	-0.02535489317976247	0.10848029578526	0.07100039480140574	0.2725319639604442	-0.2313506270641035	0.02817015890872658	-0.001896765426383023	-0.1574637161662777	0.1179595958471548	0.04686931561879252	0.2054886038380093	4.171460894938847	-23.64026965710142	6.350879769023287	-12.74275862767157	-522.429527729031	-52.83926825092733	-33.03551117376038	0.8268976554288416	0.9109426189253751	-0.3963510800901819	-1.723135725615338	0.5297300723778998	-0.06066132065769998	1.642049623288452	-1.041958128228664	-1.041958128228657	0.06400860807286496	0.2962002621317928	0.04819623088816542	0.6194069860826561	-3.761777466239143e-08	7.502633628274128e-07	4.154987078539635e-08	2.865099679745354e-07	2.185281476620591e-07	-3.387451244117771e-07	1.332809142214914e-07
1.51	-0.483693139468412	-0.08921420117557576	0.7637203259893861	1.197848817205684	-0.4241502054609617	-0.2802939984468952	-0.230002247707305	0.6187902540415543	0.6187902540418073	-0.1674145015638749	-0.1540531848120326	-0.0593135867051435	-0.1028044009919082	1.033147954735533	0.4513332598334707	0.5237829384639898	-2.748189788525124	0.2289760270377421	-0.5819049751280657	0.3050766587913971	-1.561654440199209	-1.561654440199293	-0.0249455919385093	0.1110404456561074	0.07149004574211458	0.2784707666536235	-0.2233488453138715	0.02734260468193896	-0.001893036960632541	-0.1559319575340385	0.1155698195366285	0.04513155129770553	0.1993095212378309	3.680265973310334	-22.87177760600033	6.310857912684997	-12.30195117091721	-517.9680370099939	-52.96928094270723	-33.66354210603706	0.7718309781930764	0.8849502311364587	-0.4626855510317266	-1.547917224492922	0.4855012522935329	-0.0569607751586154	1.59448745628817	-0.905678886881653	-0.9056788868676351	0.02847523969217069	0.235274459475554	0.05056285645714249	0.5774540456109819	-5.122865780701848e-08	8.103904583179646e-07	9.485417519918244e-08	3.040251363572882e-07	2.246120875503406e-07	-3.294575980838232e-07	1.309279256605633e-07
1.52	-0.4733252578823678	-0.08465718705623267	0.7689338578846527	1.170294169549888	-0.4218360558168102	-0.2861142903205262	-0.2268712677246841	0.6031304858160133	0.6031304858162531	-0.1676620576555174	-0.1529300890035195	-0.058596035680339	-0.09999061465097579	1.040273139563723	0.4600190824271065	0.5188096216932375	-2.762361299370665	0.2338241791226471	-0.5820709895511973	0.3211041536952818	-1.570082416649075	-1.570082416649068	-0.02457291639557755	0.1135746799235562	0.07202822991462841	0.2842630547338545	-0.2153470635632631	0.02651505045532288	-0.001889308495317045	-0.1544001989017281	0.1131800432261289	0.0433937869768142	0.1931304386379448	3.177774297502335	-22.10166542877784	6.270986518333675	-11.82372795639273	-513.6483933936715	-53.12472283200781	-34.2758695194081	0.6404943247385972	0.8508655764408525	-0.5325693593460694	-1.269122188864679	0.4927005111842422	0.03916151456939349	1.623828771526744	-0.7820197546027796	-0.7820197546027702	0.05668346840841978	0.2910171414519866	0.05790287724975279	0.5901040634932416	-5.173177565961194e-08	8.343491270223495e-07	8.185255071191875e-08	3.048783387728074e-07	2.41691303753487e-07	-3.198397546594166e-07	1.323443260080243e-07
1.53	-0.4628907292544518	-0.0800149758953408	0.774094294258682	1.142609160583269	-0.4194744066992754	-0.2919336987897231	-0.2235807562481879	0.587392911730202	0.5873929117303905	-0.1679062190081123	-0.1517817107661356	-0.05787299108554897	-0.09711976391008645	1.046474958135745	0.4683558448597319	0.5131668285299487	-2.77424275377962	0.2384736137402839	-0.5817459116355268	0.3369610918224333	-1.577204543405824	-1.577204543405904	-0.02425318769017539	0.116081621489895	0.07258012857360606	0.2898771171209842	-0.2074864077061412	0.02559396683097781	-0.001860774220718023	-0.1523808640677881	0.1100204168126218	0.04178806530288658	0.1869681747439008	2.431445970422139	-21.33654305026357	6.220873921388915	-11.09785592321776	-509.2734954359214	-53.34644611051229	-34.86937221693729	0.5863680491192238	0.8150416458058866	-0.5967008118490538	-1.088006128135028	0.4461122660325715	0.03902942296849189	1.56106886519804	-0.643158704094817	-0.6431587041077748	0.02070205177989275	0.2275591500083217	0.05374811238816393	0.5424393696026214	-3.830789288941985e-08	8.198788422664326e-07	-1.599123232709606e-09	2.880282023481412e-07	2.704530010411772e-07	-3.098709493200287e-07	1.377657020706488e-07
1.54	-0.452398913955705	-0.07529140509629639	0.7791949893976736	1.11481726726033	-0.4170672537697575	-0.2977478867811611	-0.2201327868840444	0.5715909464632575	0.5715909464633505	-0.1681469661775189	-0.1506088578160466	-0.05714444455374031	-0.09419369613666903	1.051730473735261	0.4762910100576128	0.506861374685501	-2.783738170637523	0.2429249415170696	-0.5810268940037334	0.35259573122518	-1.58296065287794	-1.582960652878109	-0.02389007977777704	0.1184696224876102	0.07312861731925069	0.2953064612393383	-0.1996257518487038	0.02467288320675715	-0.001832239945438693	-0.1503615292339203	0.1068607903991201	0.04018234362908404	0.1808059108501124	1.673742617981516	-20.57080349864838	6.172233055864307	-10.33653907466244	-505.0386918293965	-53.59563701794539	-35.44094056076144	0.4512337302364324	0.7705461294924314	-0.6651014955777498	-0.7919146786545013	0.4530791430140038	0.1179494577939483	1.579369026645276	-0.5088162976766076	-0.5088162976766176	0.06535930980752652	0.2672290277272561	0.05722089458378906	0.5531604097384156	-3.505937285126389e-08	8.28913375963521e-07	-3.280643335166694e-08	2.817871911279602e-07	2.895440977496697e-07	-2.96853286623161e-07	1.389916062472345e-07
1.55	-0.4418593204174513	-0.07049055612932345	0.7842293928414215	1.086942351416986	-0.4146166230345644	-0.3035529572824471	-0.2165297848564653	0.5557382772018645	0.555738277201892	-0.1683839429285653	-0.1494127477921466	-0.05641040141193619	-0.09121429695748301	1.05602149674904	0.4838042875756448	0.4999152140608646	-2.790837426765406	0.2471611685160415	-0.5799084851488558	0.3679511775466181	-1.587339038321997	-1.587339038321967	-0.02351358352390694	0.120742281423506	0.07368209704677656	0.3005358737730768	-0.1916838750733196	0.02359249647160601	-0.001852797896924273	-0.1485307689767851	0.1041102199796723	0.03839272965874545	0.1745422536270232	1.036597396565151	-19.75398944249182	6.124223025589457	-9.645620979861032	-500.8895382910072	-53.713193635042	-35.98734764431583	0.3930063514736384	0.7306024189344946	-0.7249279643375978	-0.6078116892632225	0.4027236311220572	0.1207206977584982	1.50560792233527	-0.3672521820149711	-0.3672521819850166	0.02272255814154862	0.2057047958773167	0.05472403323060423	0.5020668878586246	-4.353464030871412e-08	8.650295483129837e-07	-3.819150367137098e-09	2.877697372085985e-07	2.974929807473481e-07	-2.803228100144145e-07	1.353835971638191e-07
